<?xml version="1.0" standalone="no"?>
<!DOCTYPE svg PUBLIC "-//W3C//DTD SVG 20010904//EN"
 "http://www.w3.org/TR/2001/REC-SVG-20010904/DTD/svg10.dtd">
<svg version="1.0" xmlns="http://www.w3.org/2000/svg"
 width="500.000000pt" height="500.000000pt" viewBox="0 0 500.000000 500.000000"
 preserveAspectRatio="xMidYMid meet">

<g transform="translate(0.000000,500.000000) scale(0.100000,-0.100000)"
fill="#FFFFFF" stroke="none">
<path d="M3710 3925 c-268 -54 -518 -226 -666 -460 l-47 -75 -33 68 c-99 203
-323 384 -549 443 -104 28 -298 30 -400 5 -164 -40 -324 -157 -408 -298 -110
-185 -119 -416 -27 -661 67 -177 271 -377 506 -495 70 -35 286 -123 291 -119
2 2 -36 21 -85 41 -247 107 -446 255 -550 411 -87 130 -117 240 -116 425 0
149 15 211 77 320 43 77 150 179 228 217 189 93 469 79 653 -32 167 -100 292
-241 341 -382 22 -62 22 -64 5 -125 -28 -103 -45 -227 -34 -246 20 -31 35 -24
57 30 50 121 149 309 209 392 151 213 360 374 578 446 83 27 237 37 322 21
202 -39 372 -198 434 -407 26 -88 24 -230 -5 -319 -76 -236 -184 -371 -506
-631 -380 -307 -808 -726 -995 -974 -18 -25 -37 -49 -41 -54 -4 -5 -57 43
-118 106 -315 328 -670 510 -1094 563 -153 19 -265 19 -410 0 -284 -37 -534
-136 -754 -298 -69 -51 -206 -178 -199 -184 2 -3 35 18 73 45 470 341 1025
448 1588 306 333 -84 622 -272 824 -537 l44 -57 -42 -81 c-46 -91 -52 -143
-23 -198 38 -71 143 -94 201 -45 78 65 59 149 -73 329 -11 14 11 45 135 190
94 111 248 259 399 386 163 136 252 202 440 324 304 198 333 220 425 310 51
50 112 119 135 155 183 272 170 641 -30 886 -174 212 -477 316 -760 259z
m-747 -2612 c45 -75 59 -123 43 -155 -13 -27 -58 -36 -92 -17 -26 14 -54 66
-54 101 0 27 47 128 60 128 5 0 24 -26 43 -57z"/>
</g>
</svg>
